<?xml version="1.0" encoding="UTF-8"?>
<svg id="Capa_1" xmlns="http://www.w3.org/2000/svg" width="783.2" height="177.2" version="1.1" viewBox="0 0 783.2 177.2">
  <!-- Generator: Adobe Illustrator 30.4.0, SVG Export Plug-In . SVG Version: 2.1.4 Build 226)  -->
  <defs>
    <style>
      .st0 {
        fill: #fff;
      }
    </style>
  </defs>
  <path class="st0" d="M91.6,85.3c6.4,2.9,12.1,6.5,15.2,12.6,5.7,11.2,1.1,24.5-9.8,30.8-6.6,3.8-13.9,5.6-21.7,5.6h-33.8c0,.1,0-94.1,0-94.1h32.8c4.9,0,9.5,1.1,14,2.4,5.5,1.9,10,5,13.3,9.7,7.1,12.8,3.4,25.8-10,32.9ZM86.2,69.1c.7-3.9-.4-7.6-3.5-9.9-2.7-1.9-6.2-2.9-9.6-2.9h-13.2s0,21.5,0,21.5h13.4c5.9,0,11.8-3,12.9-8.7ZM88.3,113.2c3.6-5,2.9-11.7-1.5-15.7-3.7-2.5-8-3.6-12.5-3.6h-14.4c0,0,0,24.3,0,24.3,10-.4,21.7,1.9,28.4-5.1Z"/>
  <path class="st0" d="M504.1,72.4c6.6,24.5-2.3,49-27.1,58-7.5,2.6-15,3.9-23,3.9h-28.2c0,0,0-94.1,0-94.1h29.2c9.1.1,17.7,1.9,25.9,5.5,11.3,5.3,19.9,14.5,23.2,26.7ZM485.7,96.1c3.1-14.3-.6-28.9-14.4-35.3s-9.5-3.4-14.7-3.4h-11.9s0,59.7,0,59.7h9.9c14.5-.1,28-6.6,31.2-21.1Z"/>
  <path class="st0" d="M616.9,134.3h-20c0,0-19.1-35.9-19.1-35.9h-13.5s0,36,0,36h-18.5s0-94.2,0-94.2h33.6c7.2,0,13.9,2.1,19.8,5.7,8.1,5.1,12.2,13.3,12.2,22.7,0,11-5.8,20.5-16.5,25l21.9,40.7ZM588.7,60.7c-2.9-2.6-6.6-3.7-10.2-3.7h-14.1c0,0,0,24.6,0,24.6l16-.2c4.9,0,9.4-3.3,11-7.3,1.9-4.6,1.2-10-2.6-13.4Z"/>
  <path class="st0" d="M711.4,114.9h-40.8s-7.4,19.4-7.4,19.4h-18.9s37.9-94.1,37.9-94.1h18.6c0,0,37.9,94.1,37.9,94.1h-19.7s-7.5-19.4-7.5-19.4ZM705.1,98.6l-14.1-36-14,36h28.1Z"/>
  <path class="st0" d="M203.2,40.2h19s0,57.7,0,57.7c0,17.3-9.1,32.1-26,36.4s-15.6,1.9-23.3-.1c-16.5-4.3-25.1-18.9-25.5-35.7v-58.3s18.9,0,18.9,0v57.3c.3,11.5,6,20.5,17.6,20.9,5.7.2,11.2-1.5,14.7-6.1,3.2-4.1,4.2-9.1,4.6-14.4v-57.7Z"/>
  <polygon class="st0" points="388.7 117.6 388.7 134.4 330.1 134.4 330.1 40.2 349 40.2 349 117.6 388.7 117.6"/>
  <rect class="st0" x="265.7" y="40.2" width="18.9" height="94.2"/>
</svg>