<?xml version="1.0" encoding="UTF-8"?>
<svg id="Capa_1" xmlns="http://www.w3.org/2000/svg" width="760" height="217.9" xmlns:xlink="http://www.w3.org/1999/xlink" version="1.1" viewBox="0 0 760 217.9">
  <!-- Generator: Adobe Illustrator 30.4.0, SVG Export Plug-In . SVG Version: 2.1.4 Build 226)  -->
  <defs>
    <style>
      .st0 {
        fill: none;
      }

      .st1 {
        fill: #262626;
      }

      .st2 {
        clip-path: url(#clippath);
      }
    </style>
    <clipPath id="clippath">
      <rect class="st0" x="44.5" y="53.9" width="677.8" height="120.9"/>
    </clipPath>
  </defs>
  <g class="st2">
    <polygon class="st1" points="433.4 67.6 441.2 89.8 452.6 55.3 462.1 55.3 445.8 102.4 436.6 102.4 428.4 80.3 420.4 102.4 411.2 102.4 394.8 55.3 404.9 55.3 416.3 89.8 424.1 67.8 419.3 55.3 426.8 55.3 428.7 60 430.5 55.3 437.9 55.3 433.4 67.6"/>
    <polygon class="st1" points="327.1 102.4 317.7 102.4 297.1 70.8 297 102.4 287.9 102.4 287.9 55.2 297.1 55.1 317.7 86.5 317.8 55.2 327.1 55.1 327.1 102.4"/>
    <path class="st1" d="M609.9,92.7h-20.2s-3.7,9.7-3.7,9.7h-9.7c0-.1,18.9-47.3,18.9-47.3h9.5s19,47.2,19,47.2h-10.2s-3.7-9.7-3.7-9.7ZM606.7,84.3l-6.8-17.5-6.8,17.5h13.6Z"/>
    <polygon class="st1" points="377.6 82.5 359.2 82.5 359.2 93.8 379.4 93.8 379.4 102.4 349.5 102.4 349.5 55.1 379.4 55.1 379.4 63.7 359.2 63.7 359.2 73.9 377.6 73.9 377.6 82.5"/>
    <polygon class="st1" points="692.4 102.4 722.3 102.4 722.3 93.8 702.1 93.8 702.1 82.5 720.5 82.5 720.4 73.9 702.1 73.9 702.1 63.7 722.3 63.7 722.3 55.1 692.4 55.1 692.4 102.4"/>
    <path class="st1" d="M491.6,103c-6-.6-11.2-3.1-15.6-7.4l5.4-6.6c3.6,3.5,7.6,5.5,12.3,5.6,2.1,0,4.2-.3,5.8-1.6,1.3-1.1,1.9-2.6,1.8-4.2,0-1.4-1.1-3-2.6-3.6l-7-2.8c-6.9-2.8-13.7-5-13.9-13.8,0-4,1.2-7.6,4.3-10.3,7.6-6.5,20.1-4.8,27.3,2.5l-5.5,6.5c-2-1.7-3.8-2.9-6.1-3.9-4.7-1.6-10.2-.3-10.5,3.7-.1,1.7.6,3.5,2.2,4.2l6.5,2.9,7.6,3.2c2.2.9,4.2,2.6,5.4,4.7,3.7,6.4,1.5,14.3-4.7,18.1-3.8,2.4-8.2,3.2-12.9,2.7"/>
    <polygon class="st1" points="549.3 102.4 539.6 102.4 539.6 63.7 525.8 63.7 525.8 55.1 563.2 55.1 563.2 63.7 549.4 63.7 549.3 102.4"/>
    <polygon class="st1" points="660.4 102.4 650.7 102.4 650.7 63.7 636.9 63.7 636.9 55.1 674.3 55.1 674.4 63.7 660.4 63.7 660.4 102.4"/>
    <path class="st1" d="M568.2,164.3h-20.3s-3.8,9.8-3.8,9.8h-9.8c0-.1,19.1-47.7,19.1-47.7h9.6s19.1,47.7,19.1,47.7h-10.3s-3.7-9.8-3.7-9.8ZM564.9,155.8l-6.9-17.6-6.9,17.7h13.7Z"/>
    <path class="st1" d="M371.3,164.3h-20.3s-3.8,9.8-3.8,9.8h-9.8s19.1-47.6,19.1-47.6h9.6c0,0,19.1,47.6,19.1,47.6h-10.3s-3.7-9.7-3.7-9.7ZM368,155.8l-6.9-17.7-6.9,17.7h13.8Z"/>
    <path class="st1" d="M436.1,141.8c0,10.5-8.1,15.8-18.4,15.8h-5.3s0,16.5,0,16.5h-9.5s0-47.7,0-47.7h17.5c2.8,0,5.6,1.1,8,2.2,5.1,2.6,7.7,7.5,7.7,13.2M420.2,148.6c3.9-.5,6.2-3.5,6-7-.1-3.4-2.7-6.3-6.5-6.4l-7.4-.2v13.9s7.8-.3,7.8-.3Z"/>
    <path class="st1" d="M294.1,141.7c-4.8,8.7-1.3,20.5,7.7,23.3,4.6,1.4,9.1.6,12.7-1.9l3.6-3,6.1,6.4c-9.2,10.4-25.2,11.1-35.2,1.4-5.5-5.3-7.8-12.8-7.1-20.4,1.1-11.5,9.7-20.4,21.1-21.7,7.8-.9,15.3,1.6,20.5,7.4l-6,6.5c-2.8-2.7-6.1-4.7-10.1-5-5.6-.4-10.6,2.1-13.4,7"/>
    <polygon class="st1" points="507.1 174 497.3 174.1 497.3 135.1 483.4 135 483.4 126.4 521.1 126.4 521.1 135 507.1 135 507.1 174"/>
    <polygon class="st1" points="629.5 165.4 629.6 174.1 599.8 174.1 599.8 126.4 609.6 126.4 609.6 165.4 629.5 165.4"/>
    <rect class="st1" x="455.3" y="126.4" width="9.8" height="47.7"/>
    <path class="st1" d="M255.3,53.9h-41.3s-5.6,1.1-5.6,1.1c-2.8.6-5.7,2.8-7.8,4.8-3.8,3.6-7.4,14.5-9.7,21.3l-2.2,6.7-2.2,5.9-2.2,6.8c-.9,2.8-2,5.5-4.1,6.3l-33.7-52.9h-43.7c-7.9.2-14.5,5-17.2,11.7-3.5,11.8,7,18.7,18,23.5l34,15c8.7,3.9,15.4,11.1,20.1,19.2,6.6,11.7,7.5,29.2,3.8,41.6l-2.6,8.8,44.4-.2c7.7,0,13.7-6.2,16-13l33.6-96c1.3-3.6,2.8-6.6,2.3-10.7M90.8,174c7.3-1.7,13.1-5.2,15.7-11.5,2.5-6,2.9-11.3-.9-17-3.4-5.3-9.5-8.9-15.5-11.6l-23.2-10.2c-1-.4-3.4-.9-4.3-.4-.9.5-1.7,2.2-2.1,3.6l-9.3,27.1-6.6,18.9,3.1,1.3h43.1Z"/>
    <path class="st1" d="M255.3,53.9c.5,4.1-1.1,7.1-2.3,10.7l-33.6,96c-2.4,6.8-8.3,13-16,13l-44.4.2,2.6-8.8c3.7-12.4,2.8-29.9-3.8-41.6-4.6-8.2-11.3-15.4-20.1-19.2l-34-15c-10.9-4.8-21.5-11.7-18-23.5,2.7-6.8,9.4-11.6,17.2-11.6h43.7c0-.1,33.7,52.8,33.7,52.8,2.1-.8,3.2-3.5,4.1-6.3l2.2-6.8,2.2-5.9,2.2-6.7c2.3-6.8,5.9-17.7,9.7-21.3,2.1-2,5-4.2,7.8-4.8l5.6-1.1h41.3Z"/>
    <path class="st1" d="M90.8,174h-43.1c0,0-3.1-1.2-3.1-1.2l6.6-18.9,9.3-27.1c.5-1.3,1.2-3.1,2.1-3.6.9-.5,3.3,0,4.3.4l23.2,10.2c6.1,2.7,12.1,6.3,15.5,11.6,3.7,5.8,3.3,11,.9,17-2.6,6.3-8.4,9.8-15.7,11.5"/>
  </g>
</svg>