<?xml version="1.0" encoding="UTF-8"?>
<svg id="Capa_1" xmlns="http://www.w3.org/2000/svg" width="760" height="217.9" version="1.1" viewBox="0 0 760 217.9">
  <!-- Generator: Adobe Illustrator 30.4.0, SVG Export Plug-In . SVG Version: 2.1.4 Build 226)  -->
  <defs>
    <style>
      .st0 {
        fill: #fff;
      }
    </style>
  </defs>
  <polygon class="st0" points="433.4 60.3 441.2 82.5 452.6 48 462.1 48 445.8 95.1 436.6 95.1 428.4 73 420.4 95.1 411.2 95.1 394.8 48 404.9 48 416.3 82.5 424.1 60.5 419.3 48 426.8 48 428.7 52.7 430.5 48 437.9 48 433.4 60.3"/>
  <polygon class="st0" points="327.1 95.1 317.7 95.1 297.1 63.5 297 95.1 287.9 95.1 287.9 47.9 297.1 47.8 317.7 79.2 317.8 47.9 327.1 47.8 327.1 95.1"/>
  <path class="st0" d="M609.9,85.4h-20.2s-3.7,9.7-3.7,9.7h-9.7c0-.1,18.9-47.3,18.9-47.3h9.5s19,47.2,19,47.2h-10.2s-3.7-9.7-3.7-9.7ZM606.7,77l-6.8-17.5-6.8,17.5h13.6Z"/>
  <polygon class="st0" points="377.6 75.2 359.2 75.2 359.2 86.5 379.4 86.5 379.4 95.1 349.5 95.1 349.5 47.8 379.4 47.8 379.4 56.4 359.2 56.4 359.2 66.6 377.6 66.6 377.6 75.2"/>
  <polygon class="st0" points="692.4 95.1 722.3 95.1 722.3 86.5 702.1 86.5 702.1 75.2 720.5 75.2 720.4 66.6 702.1 66.6 702.1 56.4 722.3 56.4 722.3 47.8 692.4 47.8 692.4 95.1"/>
  <path class="st0" d="M491.6,95.7c-6-.6-11.2-3.1-15.6-7.4l5.4-6.6c3.6,3.5,7.6,5.5,12.3,5.6,2.1,0,4.2-.3,5.8-1.6,1.3-1.1,1.9-2.6,1.8-4.2,0-1.4-1.1-3-2.6-3.6l-7-2.8c-6.9-2.8-13.7-5-13.9-13.8,0-4,1.2-7.6,4.3-10.3,7.6-6.5,20.1-4.8,27.3,2.5l-5.5,6.5c-2-1.7-3.8-2.9-6.1-3.9-4.7-1.6-10.2-.3-10.5,3.7-.1,1.7.6,3.5,2.2,4.2l6.5,2.9,7.6,3.2c2.2.9,4.2,2.6,5.4,4.7,3.7,6.4,1.5,14.3-4.7,18.1-3.8,2.4-8.2,3.2-12.9,2.7"/>
  <polygon class="st0" points="549.3 95.1 539.6 95.1 539.6 56.4 525.8 56.4 525.8 47.8 563.2 47.8 563.2 56.4 549.4 56.4 549.3 95.1"/>
  <polygon class="st0" points="660.4 95.1 650.7 95.1 650.7 56.4 636.9 56.4 636.9 47.8 674.3 47.8 674.4 56.4 660.4 56.4 660.4 95.1"/>
  <path class="st0" d="M568.2,157h-20.3s-3.8,9.8-3.8,9.8h-9.8c0-.1,19.1-47.7,19.1-47.7h9.6s19.1,47.7,19.1,47.7h-10.3s-3.7-9.8-3.7-9.8ZM564.9,148.5l-6.9-17.6-6.9,17.7h13.7Z"/>
  <path class="st0" d="M371.3,157h-20.3s-3.8,9.8-3.8,9.8h-9.8s19.1-47.6,19.1-47.6h9.6c0,0,19.1,47.6,19.1,47.6h-10.3s-3.7-9.7-3.7-9.7ZM368,148.5l-6.9-17.7-6.9,17.7h13.8Z"/>
  <path class="st0" d="M436.1,134.5c0,10.5-8.1,15.8-18.4,15.8h-5.3s0,16.5,0,16.5h-9.5s0-47.7,0-47.7h17.5c2.8,0,5.6,1.1,8,2.2,5.1,2.6,7.7,7.5,7.7,13.2M420.2,141.3c3.9-.5,6.2-3.5,6-7-.1-3.4-2.7-6.3-6.5-6.4l-7.4-.2v13.9s7.8-.3,7.8-.3Z"/>
  <path class="st0" d="M294.1,134.4c-4.8,8.7-1.3,20.5,7.7,23.3,4.6,1.4,9.1.6,12.7-1.9l3.6-3,6.1,6.4c-9.2,10.4-25.2,11.1-35.2,1.4-5.5-5.3-7.8-12.8-7.1-20.4,1.1-11.5,9.7-20.4,21.1-21.7,7.8-.9,15.3,1.6,20.5,7.4l-6,6.5c-2.8-2.7-6.1-4.7-10.1-5-5.6-.4-10.6,2.1-13.4,7"/>
  <polygon class="st0" points="507.1 166.7 497.3 166.8 497.3 127.8 483.4 127.7 483.4 119.1 521.1 119.1 521.1 127.7 507.1 127.7 507.1 166.7"/>
  <polygon class="st0" points="629.5 158.1 629.6 166.7 599.8 166.8 599.8 119.1 609.6 119.1 609.6 158.1 629.5 158.1"/>
  <rect class="st0" x="455.3" y="119.1" width="9.8" height="47.7"/>
  <path class="st0" d="M255.3,46.6c.5,4.1-1.1,7.1-2.3,10.7l-33.6,96c-2.4,6.8-8.3,13-16,13l-44.4.2,2.6-8.8c3.7-12.4,2.8-29.9-3.8-41.6-4.6-8.2-11.3-15.4-20.1-19.2l-34-15c-10.9-4.8-21.5-11.7-18-23.5,2.7-6.8,9.4-11.6,17.2-11.6h43.7c0-.1,33.7,52.8,33.7,52.8,2.1-.8,3.2-3.5,4.1-6.3l2.2-6.8,2.2-5.9,2.2-6.7c2.3-6.8,5.9-17.7,9.7-21.3,2.1-2,5-4.2,7.8-4.8l5.6-1.1h41.3Z"/>
  <path class="st0" d="M90.8,166.7h-43.1c0,0-3.1-1.2-3.1-1.2l6.6-18.9,9.3-27.1c.5-1.3,1.2-3.1,2.1-3.6.9-.5,3.3,0,4.3.4l23.2,10.2c6.1,2.7,12.1,6.3,15.5,11.6,3.7,5.8,3.3,11,.9,17-2.6,6.3-8.4,9.8-15.7,11.5"/>
</svg>